<svg width="100" height="24" viewBox="0 0 100 24" fill="none" xmlns="http://www.w3.org/2000/svg">
<path d="M14.0727 18.4091C12.1636 17.7 10.2 17.591 8.4 18.0819C7.14545 18.4091 5.94545 19.0637 4.85454 19.8819L4.09089 20.5364L3.87271 20.7546L4.36362 21.1909C4.41817 21.1909 4.41817 21.2455 4.47272 21.3C4.58181 21.4091 4.69091 21.4637 4.85454 21.5728L5.1818 21.7909L5.50908 21.5182C5.56362 21.4637 5.67271 21.3546 5.78181 21.3C6.76362 20.4819 7.85453 19.9364 8.99998 19.6637C10.4727 19.2819 12.0545 19.3364 13.6363 19.9364C14.9454 20.4273 17.6182 21.0273 20.8364 19.6637L20.9455 19.6091L21.1091 19.4455C21.1091 19.3909 21.1636 19.3909 21.2182 19.3364C21.4909 19.0091 21.7636 18.6819 21.9818 18.3L23.0727 16.6091L21.3273 17.5909C18.7636 19.0091 16.4182 19.2818 14.0727 18.4091Z" fill="#A7C6BA"/>
<path d="M6.6 12.5182C8.07273 12.1364 9.65455 12.1909 11.2364 12.7909C12.9818 13.4455 17.4546 14.3727 22.4727 9.84546L23.5636 8.75455L23.4545 8.48182C23.4 8.26364 23.2909 7.99092 23.1818 7.71819L22.9091 6.95454L22.3636 7.49999C22.3091 7.60909 22.2 7.66363 22.0909 7.77272C19.6909 10.2273 15.9818 12.7364 11.7273 11.2091C9.81818 10.5 7.85455 10.3909 6.05455 10.8818C4.30909 11.3727 2.78182 12.3 1.36364 13.6091V13.5545L0.545455 14.4273C0.545455 14.4818 0.490919 14.4818 0.436374 14.5364L0.272727 14.7L0.327276 14.9182C0.381822 15.1909 0.490909 15.4636 0.545455 15.7364L0.872731 16.6091L1.41819 15.9C1.47273 15.7909 1.58182 15.7364 1.63636 15.6273C2.78182 14.5909 4.36364 13.1182 6.6 12.5182Z" fill="#A7C6BA"/>
<path d="M1.3091 11.5364C2.56365 10.2273 3.98182 9.40909 5.50909 8.97273C6.98182 8.59091 8.56364 8.64546 10.1455 9.24546C15.0545 11.0455 19.3091 8.1 21.1636 6.51818L21.8727 5.8091L22.1455 5.5909L21.9273 5.26364C21.7636 5.10001 21.6546 4.88182 21.4909 4.66364L21.1636 4.22727L20.7818 4.60909C20.7273 4.66364 20.6182 4.77273 20.5636 4.82727C18.2727 7.00909 14.7273 9.24546 10.6909 7.71819C8.78182 7.0091 6.81819 6.9 5.01819 7.39091C3.87273 7.71819 2.78182 8.26364 1.69091 8.97273L0.545455 9.90001C0.436364 10.0091 0.381818 10.0636 0.272727 10.1727L0.163646 10.2818V10.4455C0.109101 10.8273 0.109094 11.2091 0.0545488 11.5364L0 12.9L0.927279 11.9182C1.03637 11.8091 1.14547 11.6455 1.3091 11.5364Z" fill="#A7C6BA"/>
<path d="M15.6546 22.1182C15.4909 22.0637 15.3818 22.0091 15.2182 21.9546C13.3091 21.2455 11.3455 21.1364 9.54545 21.6273C9.16364 21.7364 8.78183 21.8455 8.40001 22.0091L7.09091 22.6091L6.76365 22.7727L7.85456 23.1546C8.18183 23.2637 8.5091 23.3728 8.83637 23.4818L9 23.5364L9.16365 23.4818C9.32728 23.4273 9.49092 23.3182 9.65455 23.3182C9.76364 23.3182 9.87274 23.2637 9.98183 23.2091C11.2909 22.8818 12.7091 22.8818 14.2364 23.3727C14.4 23.4273 14.5091 23.4818 14.6727 23.5364L14.9455 23.6455L15.1091 23.5909C15.4909 23.4818 15.9273 23.3728 16.2546 23.2091L17.7818 22.6637L16.2 22.2818C16.0364 22.2273 15.8182 22.1728 15.6546 22.1182Z" fill="#A7C6BA"/>
<path d="M24 10.8273L23.1818 11.6454C23.0727 11.7545 22.9637 11.8636 22.8546 11.9727C20.6182 14.1 17.0182 16.3909 12.9818 14.8636C11.0728 14.1545 9.10912 14.0454 7.30912 14.5364C5.61821 15.0273 4.09093 15.9 2.72729 17.2091L2.01821 17.9727L1.80003 18.2454L2.01821 18.5727C2.18184 18.7909 2.29094 18.9545 2.40003 19.1727L2.72729 19.6636L3.10911 19.1727C3.16366 19.1182 3.27275 19.0091 3.32729 18.9545C4.63638 17.5363 6.05456 16.6636 7.69093 16.2273C9.16366 15.8454 10.7455 15.9 12.3273 16.5C13.6909 16.9909 15.1091 17.1545 16.5273 16.9909C19.0364 16.7182 21.5455 15.3 23.4 13.7182C23.5091 13.6091 23.6182 13.5545 23.7273 13.4454L23.8909 13.2818V13.1182C23.8909 12.7909 23.9455 12.4091 23.9455 12.0818L24 10.8273Z" fill="#A7C6BA"/>
<path d="M3.27273 5.80912C3.6 5.64548 3.98183 5.53638 4.3091 5.42729C5.78183 5.04547 7.36365 5.10002 8.94547 5.70002C9.98183 6.08184 11.0182 6.24547 12.1636 6.24547C14.4546 6.24547 16.7455 5.42729 18.8727 3.84548L19.9636 2.97274L19.4727 2.59092C19.3091 2.42728 19.0909 2.26365 18.8727 2.15456L18.5455 1.93638L18.2727 2.15456C18.1636 2.20911 18.1091 2.3182 18 2.37274C15.1091 4.55456 12.2182 5.15457 9.49092 4.1182C7.52729 3.40911 5.56364 3.24548 3.6 3.84548C3.43637 3.90002 3.27273 3.95456 3.05455 4.00911L2.94547 4.06365L2.78182 4.22728C2.78182 4.28183 2.72729 4.28184 2.67274 4.33638C2.45456 4.66365 2.18182 4.93639 1.96364 5.26366L0.927279 6.84548L2.61819 5.97274C2.89092 5.97274 3.10909 5.86366 3.27273 5.80912Z" fill="#A7C6BA"/>
<path d="M7.74546 2.1L7.90909 2.15455C8.61818 2.42727 9.7091 2.7 11.0727 2.7C12.4909 2.7 13.8546 2.37273 15.2182 1.82727L16.9091 1.00909L15.7636 0.62728C15.4364 0.51819 15.1091 0.409099 14.7273 0.354553H14.5636L14.4 0.409085C14.2364 0.463631 14.0727 0.572735 13.9091 0.62728C12.2727 1.22728 10.6364 1.33637 9.05455 0.900008C8.89091 0.845462 8.72728 0.790907 8.56364 0.736361L8.40001 0.681813L8.23637 0.736361C7.90909 0.845452 7.58183 0.95455 7.25456 1.11819L6 1.66364L7.3091 2.04545C7.4182 1.9909 7.58183 2.04545 7.74546 2.1Z" fill="#A7C6BA"/>
<path d="M41.331 9.5625C41.2779 9.06629 41.0545 8.67992 40.6605 8.40341C40.2704 8.12689 39.7628 7.98864 39.1378 7.98864C38.6984 7.98864 38.3215 8.05492 38.0071 8.1875C37.6927 8.32008 37.4522 8.5 37.2855 8.72727C37.1188 8.95455 37.0336 9.21402 37.0298 9.50568C37.0298 9.74811 37.0848 9.95833 37.1946 10.1364C37.3082 10.3144 37.4616 10.4659 37.6548 10.5909C37.848 10.7121 38.062 10.8144 38.2969 10.8977C38.5317 10.9811 38.7685 11.0511 39.0071 11.108L40.098 11.3807C40.5374 11.483 40.9598 11.6212 41.3651 11.7955C41.7741 11.9697 42.1397 12.1894 42.4616 12.4545C42.7874 12.7197 43.045 13.0398 43.2344 13.4148C43.4238 13.7898 43.5185 14.2292 43.5185 14.733C43.5185 15.4148 43.3442 16.0152 42.9957 16.5341C42.6473 17.0492 42.1435 17.4527 41.4844 17.7443C40.8291 18.0322 40.0355 18.1761 39.1037 18.1761C38.1984 18.1761 37.4124 18.036 36.7457 17.7557C36.0829 17.4754 35.5639 17.0663 35.1889 16.5284C34.8177 15.9905 34.617 15.3352 34.5866 14.5625H36.6605C36.6908 14.9678 36.8158 15.3049 37.0355 15.5739C37.2552 15.8428 37.5412 16.0436 37.8935 16.1761C38.2495 16.3087 38.6473 16.375 39.0866 16.375C39.545 16.375 39.9465 16.3068 40.2912 16.1705C40.6397 16.0303 40.9124 15.8371 41.1094 15.5909C41.3063 15.3409 41.4067 15.0492 41.4105 14.7159C41.4067 14.4129 41.3177 14.1629 41.1435 13.9659C40.9692 13.7652 40.7249 13.5985 40.4105 13.4659C40.0999 13.3295 39.7363 13.2083 39.3196 13.1023L37.9957 12.7614C37.0374 12.5152 36.2798 12.142 35.723 11.642C35.17 11.1383 34.8935 10.4697 34.8935 9.63636C34.8935 8.95076 35.0791 8.35038 35.4503 7.83523C35.8253 7.32008 36.3348 6.92045 36.9787 6.63636C37.6226 6.34848 38.3518 6.20455 39.1662 6.20455C39.992 6.20455 40.7154 6.34848 41.3366 6.63636C41.9616 6.92045 42.4522 7.31629 42.8082 7.82386C43.1643 8.32765 43.348 8.9072 43.3594 9.5625H41.331ZM52.733 6.36364H54.8409V13.9659C54.8409 14.7992 54.6439 15.5322 54.25 16.1648C53.8598 16.7973 53.3106 17.2917 52.6023 17.6477C51.8939 18 51.0663 18.1761 50.1193 18.1761C49.1686 18.1761 48.339 18 47.6307 17.6477C46.9223 17.2917 46.3731 16.7973 45.983 16.1648C45.5928 15.5322 45.3977 14.7992 45.3977 13.9659V6.36364H47.5057V13.7898C47.5057 14.2746 47.6117 14.7064 47.8239 15.0852C48.0398 15.464 48.3428 15.7614 48.733 15.9773C49.1231 16.1894 49.5852 16.2955 50.1193 16.2955C50.6534 16.2955 51.1155 16.1894 51.5057 15.9773C51.8996 15.7614 52.2027 15.464 52.4148 15.0852C52.6269 14.7064 52.733 14.2746 52.733 13.7898V6.36364ZM66.6946 6.36364V18H64.8196L59.3366 10.0739H59.2401V18H57.1321V6.36364H59.0185L64.4957 14.2955H64.598V6.36364H66.6946ZM82.9205 10.2898H80.7955C80.7348 9.94129 80.6231 9.63258 80.4602 9.36364C80.2973 9.09091 80.0947 8.85985 79.8523 8.67045C79.6098 8.48106 79.3333 8.33901 79.0227 8.24432C78.7159 8.14583 78.3845 8.09659 78.0284 8.09659C77.3958 8.09659 76.8352 8.25568 76.3466 8.57386C75.858 8.88826 75.4754 9.35038 75.1989 9.96023C74.9223 10.5663 74.7841 11.3068 74.7841 12.1818C74.7841 13.072 74.9223 13.822 75.1989 14.4318C75.4792 15.0379 75.8617 15.4962 76.3466 15.8068C76.8352 16.1136 77.3939 16.267 78.0227 16.267C78.3712 16.267 78.697 16.2216 79 16.1307C79.3068 16.036 79.5814 15.8977 79.8239 15.7159C80.0701 15.5341 80.2765 15.3106 80.4432 15.0455C80.6136 14.7803 80.7311 14.4773 80.7955 14.1364L82.9205 14.1477C82.8409 14.7008 82.6686 15.2197 82.4034 15.7045C82.142 16.1894 81.7992 16.6174 81.375 16.9886C80.9508 17.3561 80.4545 17.6439 79.8864 17.8523C79.3182 18.0568 78.6875 18.1591 77.9943 18.1591C76.9716 18.1591 76.0587 17.9223 75.2557 17.4489C74.4527 16.9754 73.8201 16.2917 73.358 15.3977C72.8958 14.5038 72.6648 13.4318 72.6648 12.1818C72.6648 10.928 72.8977 9.85606 73.3636 8.96591C73.8295 8.07197 74.464 7.38826 75.267 6.91477C76.0701 6.44129 76.9792 6.20455 77.9943 6.20455C78.642 6.20455 79.2443 6.29545 79.8011 6.47727C80.358 6.65909 80.8542 6.92614 81.2898 7.27841C81.7254 7.62689 82.0833 8.05492 82.3636 8.5625C82.6477 9.06629 82.8333 9.64205 82.9205 10.2898ZM95.2486 12.1818C95.2486 13.4356 95.0137 14.5095 94.544 15.4034C94.0781 16.2936 93.4418 16.9754 92.6349 17.4489C91.8319 17.9223 90.9209 18.1591 89.902 18.1591C88.883 18.1591 87.9702 17.9223 87.1634 17.4489C86.3603 16.9716 85.724 16.2879 85.2543 15.3977C84.7884 14.5038 84.5554 13.4318 84.5554 12.1818C84.5554 10.928 84.7884 9.85606 85.2543 8.96591C85.724 8.07197 86.3603 7.38826 87.1634 6.91477C87.9702 6.44129 88.883 6.20455 89.902 6.20455C90.9209 6.20455 91.8319 6.44129 92.6349 6.91477C93.4418 7.38826 94.0781 8.07197 94.544 8.96591C95.0137 9.85606 95.2486 10.928 95.2486 12.1818ZM93.1293 12.1818C93.1293 11.2992 92.991 10.5549 92.7145 9.94886C92.4418 9.33902 92.063 8.87879 91.5781 8.56818C91.0933 8.25379 90.5346 8.09659 89.902 8.09659C89.2694 8.09659 88.7107 8.25379 88.2259 8.56818C87.741 8.87879 87.3603 9.33902 87.0838 9.94886C86.8111 10.5549 86.6747 11.2992 86.6747 12.1818C86.6747 13.0644 86.8111 13.8106 87.0838 14.4205C87.3603 15.0265 87.741 15.4867 88.2259 15.8011C88.7107 16.1117 89.2694 16.267 89.902 16.267C90.5346 16.267 91.0933 16.1117 91.5781 15.8011C92.063 15.4867 92.4418 15.0265 92.7145 14.4205C92.991 13.8106 93.1293 13.0644 93.1293 12.1818ZM97.6832 18.125C97.3385 18.125 97.0431 18.0038 96.7969 17.7614C96.5507 17.5189 96.4295 17.2235 96.4332 16.875C96.4295 16.5341 96.5507 16.2424 96.7969 16C97.0431 15.7576 97.3385 15.6364 97.6832 15.6364C98.0166 15.6364 98.3063 15.7576 98.5526 16C98.8026 16.2424 98.9295 16.5341 98.9332 16.875C98.9295 17.1061 98.8688 17.3163 98.7514 17.5057C98.6378 17.6951 98.4863 17.8466 98.2969 17.9602C98.1113 18.0701 97.9067 18.125 97.6832 18.125Z" fill="white"/>
</svg>
