<svg width="24" height="24" viewBox="0 0 24 24" fill="none" xmlns="http://www.w3.org/2000/svg">
<path opacity="0.1" fill-rule="evenodd" clip-rule="evenodd" d="M0 12C0 5.37258 5.37258 0 12 0C18.6274 0 24 5.37258 24 12C24 18.6274 18.6274 24 12 24C5.37258 24 0 18.6274 0 12Z" fill="white"/>
<path fill-rule="evenodd" clip-rule="evenodd" d="M12.0007 5.59998C10.2625 5.59998 10.0444 5.60758 9.36174 5.63864C8.6804 5.66984 8.21533 5.77771 7.80839 5.93598C7.38745 6.09945 7.03038 6.31812 6.67464 6.67399C6.31864 7.02972 6.09997 7.38679 5.93597 7.8076C5.7773 8.21467 5.6693 8.67987 5.63863 9.36095C5.6081 10.0436 5.6001 10.2619 5.6001 12C5.6001 13.7382 5.60783 13.9557 5.63876 14.6383C5.6701 15.3197 5.77797 15.7847 5.9361 16.1917C6.0997 16.6126 6.31837 16.9697 6.67424 17.3254C7.02985 17.6814 7.38692 17.9006 7.80759 18.0641C8.21479 18.2224 8.68 18.3302 9.3612 18.3614C10.0439 18.3925 10.2619 18.4001 11.9999 18.4001C13.7382 18.4001 13.9557 18.3925 14.6383 18.3614C15.3197 18.3302 15.7853 18.2224 16.1925 18.0641C16.6133 17.9006 16.9698 17.6814 17.3254 17.3254C17.6814 16.9697 17.9001 16.6126 18.0641 16.1918C18.2214 15.7847 18.3294 15.3195 18.3614 14.6385C18.3921 13.9558 18.4001 13.7382 18.4001 12C18.4001 10.2619 18.3921 10.0438 18.3614 9.36108C18.3294 8.67974 18.2214 8.21467 18.0641 7.80773C17.9001 7.38679 17.6814 7.02972 17.3254 6.67399C16.9694 6.31798 16.6134 6.09931 16.1921 5.93598C15.7841 5.77771 15.3187 5.66984 14.6374 5.63864C13.9547 5.60758 13.7374 5.59998 11.9987 5.59998H12.0007ZM11.4265 6.7533C11.5969 6.75304 11.7871 6.7533 12.0007 6.7533C13.7095 6.7533 13.912 6.75944 14.5868 6.7901C15.2108 6.81864 15.5495 6.9229 15.7751 7.01051C16.0738 7.12651 16.2867 7.26517 16.5106 7.48918C16.7346 7.71318 16.8733 7.92652 16.9895 8.22518C17.0771 8.45052 17.1815 8.78919 17.2099 9.4132C17.2406 10.0879 17.2473 10.2905 17.2473 11.9986C17.2473 13.7066 17.2406 13.9092 17.2099 14.5839C17.1814 15.2079 17.0771 15.5466 16.9895 15.7719C16.8735 16.0706 16.7346 16.2833 16.5106 16.5071C16.2866 16.7311 16.0739 16.8698 15.7751 16.9858C15.5498 17.0738 15.2108 17.1778 14.5868 17.2063C13.9122 17.237 13.7095 17.2437 12.0007 17.2437C10.2917 17.2437 10.0892 17.237 9.41451 17.2063C8.7905 17.1775 8.45183 17.0733 8.2261 16.9857C7.92743 16.8697 7.71409 16.731 7.49009 16.507C7.26609 16.283 7.12742 16.0702 7.01115 15.7714C6.92355 15.5461 6.81915 15.2074 6.79075 14.5834C6.76008 13.9087 6.75395 13.706 6.75395 11.997C6.75395 10.2879 6.76008 10.0863 6.79075 9.4116C6.81928 8.78759 6.92355 8.44892 7.01115 8.22332C7.12715 7.92465 7.26609 7.71131 7.49009 7.48731C7.71409 7.26331 7.92743 7.12464 8.2261 7.00837C8.4517 6.92037 8.7905 6.81637 9.41451 6.7877C10.0049 6.76104 10.2337 6.75304 11.4265 6.7517V6.7533ZM15.417 7.81598C14.993 7.81598 14.649 8.15959 14.649 8.58372C14.649 9.00773 14.993 9.35173 15.417 9.35173C15.841 9.35173 16.185 9.00773 16.185 8.58372C16.185 8.15972 15.841 7.81598 15.417 7.81598ZM12.0007 8.71332C10.1856 8.71332 8.71401 10.1849 8.71401 12C8.71401 13.8151 10.1856 15.2861 12.0007 15.2861C13.8158 15.2861 15.2869 13.8151 15.2869 12C15.2869 10.1849 13.8158 8.71332 12.0007 8.71332ZM12.0007 9.86667C13.1788 9.86667 14.134 10.8217 14.134 12C14.134 13.1782 13.1788 14.1334 12.0007 14.1334C10.8224 14.1334 9.86733 13.1782 9.86733 12C9.86733 10.8217 10.8224 9.86667 12.0007 9.86667Z" fill="white"/>
</svg>
