<svg width="24" height="24" viewBox="0 0 24 24" fill="none" xmlns="http://www.w3.org/2000/svg">
<path d="M18.6875 12.7188L13.6875 17.7188C13.5 17.9062 13.25 18 13 18C12.7188 18 12.4688 17.9062 12.2812 17.7188C11.875 17.3438 11.875 16.6875 12.2812 16.3125L15.5625 13H6C5.4375 13 5 12.5625 5 12C5 11.4688 5.4375 11 6 11H15.5625L12.2812 7.71875C11.875 7.34375 11.875 6.6875 12.2812 6.3125C12.6562 5.90625 13.3125 5.90625 13.6875 6.3125L18.6875 11.3125C19.0938 11.6875 19.0938 12.3438 18.6875 12.7188Z" fill="white"/>
</svg>


