<svg width="24" height="24" viewBox="0 0 24 24" fill="none" xmlns="http://www.w3.org/2000/svg">
<path opacity="0.1" fill-rule="evenodd" clip-rule="evenodd" d="M0 12C0 5.37258 5.37258 0 12 0C18.6274 0 24 5.37258 24 12C24 18.6274 18.6274 24 12 24C5.37258 24 0 18.6274 0 12Z" fill="white"/>
<path fill-rule="evenodd" clip-rule="evenodd" d="M11.6406 9.75376L11.6658 10.169L11.2461 10.1181C9.71843 9.92324 8.38383 9.26227 7.25067 8.15217L6.69668 7.60136L6.55399 8.00811C6.25181 8.91483 6.44487 9.8724 7.0744 10.5164C7.41015 10.8723 7.33461 10.9232 6.75544 10.7113C6.55399 10.6435 6.37772 10.5927 6.36093 10.6181C6.30218 10.6774 6.50363 11.4486 6.66311 11.7536C6.88134 12.1773 7.32621 12.5926 7.81305 12.8383L8.22434 13.0332L7.73751 13.0417C7.26746 13.0417 7.25067 13.0502 7.30103 13.2281C7.46891 13.7789 8.13201 14.3636 8.87066 14.6179L9.39108 14.7958L8.93781 15.067C8.26631 15.4568 7.4773 15.6771 6.68829 15.6941C6.31057 15.7025 6 15.7364 6 15.7618C6 15.8466 7.02404 16.3211 7.61999 16.5076C9.40786 17.0584 11.5315 16.8211 13.1263 15.8805C14.2595 15.211 15.3926 13.8806 15.9214 12.5926C16.2068 11.9062 16.4922 10.652 16.4922 10.0504C16.4922 9.66055 16.5174 9.6097 16.9874 9.14363C17.2644 8.87246 17.5246 8.57587 17.575 8.49113C17.6589 8.33013 17.6505 8.33013 17.2224 8.47419C16.509 8.72841 16.4083 8.69451 16.7608 8.31318C17.021 8.04201 17.3316 7.55052 17.3316 7.40646C17.3316 7.38104 17.2057 7.42341 17.063 7.49967C16.9119 7.58441 16.5761 7.71152 16.3243 7.78779L15.8711 7.93185L15.4598 7.65221C15.2331 7.49967 14.9142 7.33019 14.7463 7.27935C14.3182 7.16071 13.6635 7.17766 13.2774 7.31324C12.2282 7.69458 11.5651 8.67756 11.6406 9.75376Z" fill="white"/>
</svg>
