<svg width="24" height="24" viewBox="0 0 24 24" fill="none" xmlns="http://www.w3.org/2000/svg">
<path opacity="0.1" fill-rule="evenodd" clip-rule="evenodd" d="M0 12C0 5.37258 5.37258 0 12 0C18.6274 0 24 5.37258 24 12C24 18.6274 18.6274 24 12 24C5.37258 24 0 18.6274 0 12Z" fill="white"/>
<path fill-rule="evenodd" clip-rule="evenodd" d="M17.0009 7.8747C17.5517 8.02583 17.9854 8.47114 18.1326 9.03665C18.4001 10.0616 18.4001 12.2 18.4001 12.2C18.4001 12.2 18.4001 14.3384 18.1326 15.3634C17.9854 15.9289 17.5517 16.3742 17.0009 16.5254C16.0028 16.8 12.0001 16.8 12.0001 16.8C12.0001 16.8 7.99741 16.8 6.99923 16.5254C6.44846 16.3742 6.01472 15.9289 5.86752 15.3634C5.6001 14.3384 5.6001 12.2 5.6001 12.2C5.6001 12.2 5.6001 10.0616 5.86752 9.03665C6.01472 8.47114 6.44846 8.02583 6.99923 7.8747C7.99741 7.60004 12.0001 7.60004 12.0001 7.60004C12.0001 7.60004 16.0028 7.60004 17.0009 7.8747ZM10.8001 10.4V14.4L14.0001 12.4001L10.8001 10.4Z" fill="white"/>
</svg>
