<svg width="24" height="24" viewBox="0 0 24 24" fill="none" xmlns="http://www.w3.org/2000/svg">
<path d="M14.0727 18.4091C12.1636 17.7 10.2 17.591 8.4 18.0819C7.14545 18.4091 5.94545 19.0637 4.85454 19.8819L4.09089 20.5364L3.87271 20.7546L4.36362 21.1909C4.41817 21.1909 4.41817 21.2455 4.47272 21.3C4.58181 21.4091 4.69091 21.4637 4.85454 21.5728L5.1818 21.7909L5.50908 21.5182C5.56362 21.4637 5.67271 21.3546 5.78181 21.3C6.76362 20.4819 7.85453 19.9364 8.99998 19.6637C10.4727 19.2819 12.0545 19.3364 13.6363 19.9364C14.9454 20.4273 17.6182 21.0273 20.8364 19.6637L20.9455 19.6091L21.1091 19.4455C21.1091 19.3909 21.1636 19.3909 21.2182 19.3364C21.4909 19.0091 21.7636 18.6819 21.9818 18.3L23.0727 16.6091L21.3273 17.5909C18.7636 19.0091 16.4182 19.2818 14.0727 18.4091Z" fill="#A7C6BA"/>
<path d="M6.6 12.5182C8.07273 12.1364 9.65455 12.1909 11.2364 12.7909C12.9818 13.4455 17.4546 14.3727 22.4727 9.84546L23.5636 8.75455L23.4545 8.48182C23.4 8.26364 23.2909 7.99092 23.1818 7.71819L22.9091 6.95454L22.3636 7.49999C22.3091 7.60909 22.2 7.66363 22.0909 7.77272C19.6909 10.2273 15.9818 12.7364 11.7273 11.2091C9.81818 10.5 7.85455 10.3909 6.05455 10.8818C4.30909 11.3727 2.78182 12.3 1.36364 13.6091V13.5545L0.545455 14.4273C0.545455 14.4818 0.490919 14.4818 0.436374 14.5364L0.272727 14.7L0.327276 14.9182C0.381822 15.1909 0.490909 15.4636 0.545455 15.7364L0.872731 16.6091L1.41819 15.9C1.47273 15.7909 1.58182 15.7364 1.63636 15.6273C2.78182 14.5909 4.36364 13.1182 6.6 12.5182Z" fill="#A7C6BA"/>
<path d="M1.3091 11.5364C2.56365 10.2273 3.98182 9.40909 5.50909 8.97273C6.98182 8.59091 8.56364 8.64546 10.1455 9.24546C15.0545 11.0455 19.3091 8.1 21.1636 6.51818L21.8727 5.8091L22.1455 5.5909L21.9273 5.26364C21.7636 5.10001 21.6546 4.88182 21.4909 4.66364L21.1636 4.22727L20.7818 4.60909C20.7273 4.66364 20.6182 4.77273 20.5636 4.82727C18.2727 7.00909 14.7273 9.24546 10.6909 7.71819C8.78182 7.0091 6.81819 6.9 5.01819 7.39091C3.87273 7.71819 2.78182 8.26364 1.69091 8.97273L0.545455 9.90001C0.436364 10.0091 0.381818 10.0636 0.272727 10.1727L0.163646 10.2818V10.4455C0.109101 10.8273 0.109094 11.2091 0.0545488 11.5364L0 12.9L0.927279 11.9182C1.03637 11.8091 1.14547 11.6455 1.3091 11.5364Z" fill="#A7C6BA"/>
<path d="M15.6546 22.1182C15.4909 22.0637 15.3818 22.0091 15.2182 21.9546C13.3091 21.2455 11.3455 21.1364 9.54545 21.6273C9.16364 21.7364 8.78183 21.8455 8.40001 22.0091L7.09091 22.6091L6.76365 22.7727L7.85456 23.1546C8.18183 23.2637 8.5091 23.3728 8.83637 23.4818L9 23.5364L9.16365 23.4818C9.32728 23.4273 9.49092 23.3182 9.65455 23.3182C9.76364 23.3182 9.87274 23.2637 9.98183 23.2091C11.2909 22.8818 12.7091 22.8818 14.2364 23.3727C14.4 23.4273 14.5091 23.4818 14.6727 23.5364L14.9455 23.6455L15.1091 23.5909C15.4909 23.4818 15.9273 23.3728 16.2546 23.2091L17.7818 22.6637L16.2 22.2818C16.0364 22.2273 15.8182 22.1728 15.6546 22.1182Z" fill="#A7C6BA"/>
<path d="M24 10.8273L23.1818 11.6454C23.0727 11.7545 22.9637 11.8636 22.8546 11.9727C20.6182 14.1 17.0182 16.3909 12.9818 14.8636C11.0728 14.1545 9.10912 14.0454 7.30912 14.5364C5.61821 15.0273 4.09093 15.9 2.72729 17.2091L2.01821 17.9727L1.80003 18.2454L2.01821 18.5727C2.18184 18.7909 2.29094 18.9545 2.40003 19.1727L2.72729 19.6636L3.10911 19.1727C3.16366 19.1182 3.27275 19.0091 3.32729 18.9545C4.63638 17.5363 6.05456 16.6636 7.69093 16.2273C9.16366 15.8454 10.7455 15.9 12.3273 16.5C13.6909 16.9909 15.1091 17.1545 16.5273 16.9909C19.0364 16.7182 21.5455 15.3 23.4 13.7182C23.5091 13.6091 23.6182 13.5545 23.7273 13.4454L23.8909 13.2818V13.1182C23.8909 12.7909 23.9455 12.4091 23.9455 12.0818L24 10.8273Z" fill="#A7C6BA"/>
<path d="M3.27273 5.80912C3.6 5.64548 3.98183 5.53638 4.3091 5.42729C5.78183 5.04547 7.36365 5.10002 8.94547 5.70002C9.98183 6.08184 11.0182 6.24547 12.1636 6.24547C14.4546 6.24547 16.7455 5.42729 18.8727 3.84548L19.9636 2.97274L19.4727 2.59092C19.3091 2.42728 19.0909 2.26365 18.8727 2.15456L18.5455 1.93638L18.2727 2.15456C18.1636 2.20911 18.1091 2.3182 18 2.37274C15.1091 4.55456 12.2182 5.15457 9.49092 4.1182C7.52729 3.40911 5.56364 3.24548 3.6 3.84548C3.43637 3.90002 3.27273 3.95456 3.05455 4.00911L2.94547 4.06365L2.78182 4.22728C2.78182 4.28183 2.72729 4.28184 2.67274 4.33638C2.45456 4.66365 2.18182 4.93639 1.96364 5.26366L0.927279 6.84548L2.61819 5.97274C2.89092 5.97274 3.10909 5.86366 3.27273 5.80912Z" fill="#A7C6BA"/>
<path d="M7.74546 2.1L7.90909 2.15455C8.61818 2.42727 9.7091 2.7 11.0727 2.7C12.4909 2.7 13.8546 2.37273 15.2182 1.82727L16.9091 1.00909L15.7636 0.62728C15.4364 0.51819 15.1091 0.409099 14.7273 0.354553H14.5636L14.4 0.409085C14.2364 0.463631 14.0727 0.572735 13.9091 0.62728C12.2727 1.22728 10.6364 1.33637 9.05455 0.900008C8.89091 0.845462 8.72728 0.790907 8.56364 0.736361L8.40001 0.681813L8.23637 0.736361C7.90909 0.845452 7.58183 0.95455 7.25456 1.11819L6 1.66364L7.3091 2.04545C7.4182 1.9909 7.58183 2.04545 7.74546 2.1Z" fill="#A7C6BA"/>
</svg>
